<?xml version="1.0" standalone="no"?><!DOCTYPE svg PUBLIC "-//W3C//DTD SVG 1.1//EN" "http://www.w3.org/Graphics/SVG/1.1/DTD/svg11.dtd"><svg t="1730538839495" class="icon" viewBox="0 0 1024 1024" version="1.1" xmlns="http://www.w3.org/2000/svg" p-id="4263" xmlns:xlink="http://www.w3.org/1999/xlink" width="200" height="200"><path d="M960.64 256c0-52.928-43.072-96-96-96l-185.6 0c-0.8 0-1.472 0.416-2.272 0.448-3.424 0.224-6.848 0.704-10.08 2.048-0.448 0.192-0.8 0.576-1.248 0.8-3.168 1.472-6.272 3.136-8.928 5.696-16.576 16.032-25.088 47.904-34.528 87.936-1.312 5.536-2.4 10.336-3.52 14.496-1.44 5.76-4.064 16.48-27.264 16.48C588.416 287.904 578.624 288 576 288L160 288c-52.928 0-96 43.072-95.904 98.464L96 800c0 52.928 43.072 96 96 96l640 0c52.928 0 96-43.072 95.904-93.536M864 800c0 17.664-14.336 32-32 32L192 832c-17.632 0-32-14.336-32.096-34.464L128 384c0-17.632 14.368-32 32-32l416 0c2.784 0 12.576-0.096 15.2-0.096 45.92 0 79.328-24.352 89.216-64.512 1.056-4 2.368-9.472 3.872-15.808C686.72 261.216 692.288 237.632 697.056 224l167.584 0c17.664 0 32 14.368 32 32l0 2.272c0 0.128-0.064 0.224-0.064 0.352L864 800z" fill="#5C636E" p-id="4264"></path><path d="M128 224l416 0c17.696 0 32-14.336 32-32s-14.304-32-32-32L128 160C110.336 160 96 174.336 96 192S110.336 224 128 224z" fill="#5C636E" p-id="4265"></path></svg>