<?xml version="1.0" standalone="no"?><!DOCTYPE svg PUBLIC "-//W3C//DTD SVG 1.1//EN" "http://www.w3.org/Graphics/SVG/1.1/DTD/svg11.dtd"><svg t="1764751671698" class="icon" viewBox="0 0 1024 1024" version="1.1" xmlns="http://www.w3.org/2000/svg" p-id="7923" xmlns:xlink="http://www.w3.org/1999/xlink" width="200" height="200"><path d="M64 399.5l68.6 68.6H430V361.3H227.9c28-48.3 68-86.4 120.1-114.4S455.4 205 513.9 205s112.5 12.7 162 38.1c49.6 25.4 89.6 59.7 120.1 102.9s48.3 90.2 53.4 141.1v15.3H960l-3.8-19.1c-5.1-71.2-28-136-68.6-194.5-40.7-58.5-94-104.9-160.1-139.2-66.1-34.3-136-51.5-209.7-51.5s-133.4 14-194.5 41.9c-61 28-111.8 66.1-152.5 114.4v-179H64v324.1z m446.1 549.1c40.7 0 75-13.3 102.9-40 28-26.7 41.9-60.4 41.9-101s-14-75-41.9-102.9c-28-28-62.3-41.9-102.9-41.9s-74.3 14-101 41.9-40 62.3-40 102.9 13.3 74.3 40 101c26.7 26.7 60.4 40 101 40z" p-id="7924" fill="#F0F0F0"></path></svg>