<?xml version="1.0" standalone="no"?><!DOCTYPE svg PUBLIC "-//W3C//DTD SVG 1.1//EN" "http://www.w3.org/Graphics/SVG/1.1/DTD/svg11.dtd"><svg t="1764751684240" class="icon" viewBox="0 0 1024 1024" version="1.1" xmlns="http://www.w3.org/2000/svg" p-id="8074" xmlns:xlink="http://www.w3.org/1999/xlink" width="200" height="200"><path d="M960 397.6l-68.6 68.6H594V359.4h202.1c-28-48.3-68-86.4-120.1-114.4s-107.4-41.9-165.9-41.9-112.5 12.7-162 38.1c-49.6 25.4-89.6 59.7-120.1 102.9s-48.3 90.2-53.4 141.1v15.3H64l3.8-19.1c5.1-71.2 28-136 68.6-194.5 40.7-58.5 94-104.9 160.1-139.2s136-51.5 209.7-51.5 133.4 14 194.5 41.9 111.8 66.1 152.5 114.4v-179H960v324.1zM513.9 950.5c-40.7 0-74.3-14-101-41.9-26.7-28-40-62.3-40-102.9s13.3-75 40-102.9c26.7-28 60.4-41.3 101-40s75 15.3 102.9 41.9c28 26.7 41.9 60.4 41.9 101s-14 74.3-41.9 101c-28 26.7-62.3 40-102.9 40v3.8z" p-id="8075"></path></svg>