<?xml version="1.0" standalone="no"?><!DOCTYPE svg PUBLIC "-//W3C//DTD SVG 1.1//EN" "http://www.w3.org/Graphics/SVG/1.1/DTD/svg11.dtd"><svg t="1764831598919" class="icon" viewBox="0 0 1024 1024" version="1.1" xmlns="http://www.w3.org/2000/svg" p-id="24471" xmlns:xlink="http://www.w3.org/1999/xlink" width="200" height="200"><path d="M512 65.836c80.787 0 155.454 20.197 224 60.59s123.016 94.863 163.41 163.41 60.59 143.213 60.59 224-20.197 155.454-60.59 224S804.546 860.24 736 899.41c-68.546 39.169-143.213 58.754-224 58.754s-155.454-19.585-224-58.754c-68.546-39.169-123.016-93.027-163.41-161.574S64 594.623 64 513.836s20.197-155.454 60.59-224S219.454 166.82 288 126.426s143.213-60.59 224-60.59z m0 826.23c68.546 0 131.585-17.137 189.115-51.41s103.432-80.175 137.705-137.705c34.273-57.53 51.41-120.568 51.41-189.115s-17.137-132.197-51.41-190.951c-34.273-58.754-80.175-105.268-137.705-139.541S580.546 131.934 512 131.934s-132.197 17.137-190.951 51.41-104.656 80.787-137.705 139.541-50.186 122.404-51.41 190.951c-1.224 68.546 15.301 131.585 49.574 189.115 34.273 57.53 80.787 103.432 139.541 137.705s122.405 51.41 190.951 51.41z m106.492-580.197c9.792 9.792 17.137 22.033 22.033 36.721 4.896 14.689 7.344 29.989 7.344 45.902s-2.448 30.601-7.344 44.066-11.016 26.317-18.361 38.557-15.913 23.257-25.705 33.049l-25.705 29.377c-7.344 9.792-13.464 19.585-18.361 29.377-4.896 9.792-7.344 19.585-7.344 29.377v33.049h-80.787v-44.066c-2.448-12.24-1.224-23.869 3.672-34.885 4.896-11.016 11.016-21.421 18.361-31.213l51.41-58.754c7.344-9.792 13.465-20.197 18.361-31.213 4.896-11.016 7.344-21.421 7.344-31.213 0-9.792-1.224-17.749-3.672-23.869-2.448-6.12-6.12-11.016-11.016-14.689-4.896-3.672-10.404-6.12-16.525-7.344s-12.852-1.836-20.197-1.836c-7.344 0-15.301 1.836-23.869 5.508-8.568 3.672-15.913 9.792-22.033 18.361-6.12 8.568-9.18 18.973-9.18 31.213h-84.459c2.448-17.137 6.12-33.661 11.016-49.574 4.896-15.913 13.464-30.601 25.705-44.066s27.541-23.869 45.902-31.213c18.361-7.344 37.945-11.016 58.754-11.016 20.8[... 149 chars omitted ...]" p-id="24471" fill="#F0F0F0"></path></svg>