<?xml version="1.0" standalone="no"?><!DOCTYPE svg PUBLIC "-//W3C//DTD SVG 1.1//EN" "http://www.w3.org/Graphics/SVG/1.1/DTD/svg11.dtd"><svg t="1764665258014" class="icon" viewBox="0 0 1024 1024" version="1.1" xmlns="http://www.w3.org/2000/svg" p-id="7017" xmlns:xlink="http://www.w3.org/1999/xlink" width="200" height="200"><path d="M357.352 390.833L315.9 349.381l76.527-76.527H213.865c-25.509 0-47.298 8.503-65.367 25.509-18.069 17.006-26.572 38.263-25.509 63.772 1.063 25.509 10.097 46.766 27.103 63.772s38.263 25.509 63.772 25.509h28.698V512h-28.698c-42.515 0-78.121-14.349-106.818-43.046S64 405.181 64 363.73s14.349-77.058 43.046-106.818 64.304-44.641 106.818-44.641h178.562L315.9 135.744l41.452-41.452 127.544 127.544v41.452L363.73 387.644l-6.378 3.189z m302.918 0h239.146v478.292H363.73V473.737l-60.584-51.018v446.406l60.584 60.584h535.687L960 869.125V333.438l-15.943-44.641-181.751-178.562-41.452-15.943H440.256l60.584 57.395h159.43v239.146z m239.146-57.395H720.854V151.687l178.562 181.751z" p-id="7018" fill="#CCCCCC"></path></svg>