<?xml version="1.0" standalone="no"?><!DOCTYPE svg PUBLIC "-//W3C//DTD SVG 1.1//EN" "http://www.w3.org/Graphics/SVG/1.1/DTD/svg11.dtd"><svg t="1764745444901" class="icon" viewBox="0 0 1024 1024" version="1.1" xmlns="http://www.w3.org/2000/svg" p-id="7772" xmlns:xlink="http://www.w3.org/1999/xlink" width="200" height="200"><path d="M265.721 139.473c-58.26 39.722-104.602 88.713-139.029 146.973S72.405 407.599 67.109 475.127s3.972 133.07 27.806 196.626 60.246 118.505 109.237 164.848c48.991 46.343 105.926 80.107 170.806 101.292 64.88 21.185 131.084 27.144 198.612 17.875s129.76-33.102 186.695-71.5 102.616-86.727 137.042-144.987c34.426-58.26 54.287-121.153 59.584-188.682 5.296-67.528-3.972-133.07-27.806-196.626-23.833-63.556-60.246-118.505-109.237-164.848S713.26 109.019 647.056 87.833l-19.861 71.5c82.093 26.482 146.973 74.811 194.64 144.987 47.667 70.176 68.19 148.297 61.57 234.362s-38.398 160.876-95.334 224.432-127.774 102.617-212.515 117.182c-84.741 14.565-164.848 1.324-240.321-39.722S204.813 739.281 170.387 659.837s-40.384-160.876-17.875-244.293 68.19-150.283 137.042-200.598v146.973h75.473V103.722L325.305 64H67.109v75.473h198.612z" p-id="7773"></path></svg>