<?xml version="1.0" standalone="no"?><!DOCTYPE svg PUBLIC "-//W3C//DTD SVG 1.1//EN" "http://www.w3.org/Graphics/SVG/1.1/DTD/svg11.dtd"><svg t="1764738941694" class="icon" viewBox="0 0 1024 1024" version="1.1" xmlns="http://www.w3.org/2000/svg" p-id="7470" xmlns:xlink="http://www.w3.org/1999/xlink" width="200" height="200"><path d="M960 190.534V737.71l-30.779 30.779H768.489v160.733L737.71 960H94.779L64 929.221V286.29l30.779-30.779h160.733V94.779L286.29 64h547.176l20.519 10.26 95.756 95.756L960 190.534zM703.511 395.725l-75.237-75.237h-51.298V515.42H190.534V320.489h-61.557v574.534h574.534V395.725zM512 447.023V320.489H385.466v126.534H512z m386.443-242.809l-78.656-78.656H320.489v129.954h321.466l20.519 10.26 95.756 95.756 10.26 20.519v321.466h129.954V204.214z" p-id="7471" fill="#CCCCCC"></path></svg>