<?xml version="1.0" standalone="no"?><!DOCTYPE svg PUBLIC "-//W3C//DTD SVG 1.1//EN" "http://www.w3.org/Graphics/SVG/1.1/DTD/svg11.dtd"><svg t="1764738938052" class="icon" viewBox="0 0 1024 1024" version="1.1" xmlns="http://www.w3.org/2000/svg" p-id="7319" xmlns:xlink="http://www.w3.org/1999/xlink" width="200" height="200"><path d="M662.473 70.84H128.977L64 135.817v642.931l64.977 61.557H286.29l34.198-61.557H128.977V135.817h126.534v256.489h386.443V135.817h20.519l106.015 109.435v51.298l30.779-30.779h34.198v-20.519l-20.519-47.878L706.931 91.359 662.473 70.84z m-215.45 61.557h129.954v194.931H447.023V132.397z m372.763 194.931L429.924 717.191l-95.756 191.511 41.038 44.458 194.931-95.756L960 467.542v-44.458l-95.756-95.756h-44.458zM498.321 823.206l-64.977 30.779 34.198-64.977 30.779 34.198z m341.984-427.481l51.298 47.878-331.725 331.725-51.298-51.298 331.725-328.305z" p-id="7320" fill="#CCCCCC"></path></svg>