<?xml version="1.0" standalone="no"?><!DOCTYPE svg PUBLIC "-//W3C//DTD SVG 1.1//EN" "http://www.w3.org/Graphics/SVG/1.1/DTD/svg11.dtd"><svg t="1764663937949" class="icon" viewBox="0 0 1024 1024" version="1.1" xmlns="http://www.w3.org/2000/svg" p-id="6866" xmlns:xlink="http://www.w3.org/1999/xlink" width="200" height="200"><path d="M685.3 130.37c0-17.207-6.76-32.571-20.28-46.091S634.908 64 615.243 64H408.757c-19.665 0-36.258 6.76-49.778 20.28-13.52 13.52-20.28 28.883-20.28 46.091v70.058H132.214v70.058h66.37V893.63L268.642 960h483.029l70.058-66.37V270.486h70.058v-70.058H685.3V130.37z m-70.057 70.058H408.757V130.37h206.486v70.058z m-346.601 70.058h483.029V893.63H268.642V270.486z m140.115 553.086H338.7V340.543h70.058v483.029z m66.371 0h70.058V340.543h-70.058v483.029z m140.115 0H685.3V340.543h-70.058v483.029z" p-id="6867"></path></svg>