<?xml version="1.0" standalone="no"?><!DOCTYPE svg PUBLIC "-//W3C//DTD SVG 1.1//EN" "http://www.w3.org/Graphics/SVG/1.1/DTD/svg11.dtd"><svg t="1750594686078" class="icon" viewBox="0 0 1024 1024" version="1.1" xmlns="http://www.w3.org/2000/svg" p-id="1505" xmlns:xlink="http://www.w3.org/1999/xlink" width="200" height="200"><path d="M628 710.857143l0 120.571429q0 38.285714-22.285714 38.285714-13.142857 0-25.714286-12.571429l0-172q12.571429-12.571429 25.714286-12.571429 22.285714 0 22.285714 38.285714zm193.142857 0.571429l0 26.285714-51.428571 0 0-26.285714q0-38.857143 25.714286-38.857143t25.714286 38.857143zm-552-124.571429l61.142857 0 0-53.714286-178.285714 0 0 53.714286 60 0 0 325.142857 57.142857 0 0-325.142857zm164.571429 325.142857l50.857143 0 0-282.285714-50.857143 0 0 216q-17.142857 24-32.571429 24-10.285714 0-12-12-0.571429-1.714286-0.571429-20l0-208-50.857143 0 0 223.428571q0 28 4.571429 41.714286 6.857143 21.142857 33.142857 21.142857 27.428571 0 58.285714-34.857143l0 30.857143zm245.142857-84.571429l0-112.571429q0-41.714286-5.142857-56.571429-9.714286-32-40.571429-32-28.571429 0-53.142857 30.857143l0-124-50.857143 0 0 378.857143 50.857143 0 0-27.428571q25.714286 31.428571 53.142857 31.428571 30.857143 0 40.571429-31.428571 5.142857-15.428571 5.142857-57.142857zm193.142857-5.714286l0-7.428571-52 0q0 29.142857-1.142857 34.857143-4 20.571429-22.857143 20.571429-26.285714 0-26.285714-39.428571l0-49.714286 102.285714 0 0-58.857143q0-45.142857-15.428571-66.285714-22.285714-29.142857-60.571429-29.142857-38.857143 0-61.142857 29.142857-16 21.142857-16 66.285714l0 98.857143q0 45.142857 16.571429 66.285714 22.285714 29.142857 61.714286 29.142857 41.142857 0 61.714286-30.285714 10.285714-15.428571 12-30.857143 1.142857-5.142857 1.142857-33.142857zm-347.428571-521.714286l0-120q0-39.428571-24.571429-39.428571t-24.571429 39.428571l0 120q0 40 24.571429 40t24.571429-40zm410.857143 429.142857q0 133.714286-14.857143 200-8 33.714286-33.142857 56.571429t-58.285714 26.285714q-105.142857 12-317.142857 12t-317.142857-12q-33.142857-3.428571-58.571429-26.285714t-32.857143-56.571429q-14.857143-64-14.857143-200 0-133.714286 14.857143-200 8-33.714286 33.142857-56.571429t58.857143-26.857143q104.571429-11.428571 316.571429-11.428571t317.142857 11.428571q33.142857 4 58.571429 26.857143t32.857143 56.571429q14.857143 64 14.857143 200zm-570.285714-729.142857l58.285714 0-69.142857 228 0 154.857143-57.142857 0 0-154.857143q-8-42.285714-34.857143-121.142857-21.142857-58.857143-37.142857-106.857143l60.571429 0 40.571429 150.285714zm211.428571 190.285714l0 100q0 46.285714-16 67.428571-21.142857 29.142857-60.571429 29.142857-38.285714 0-60-29.142857-16-21.714286-16-67.428571l0-100q0-45.714286 16-66.857143 21.714286-29.142857 60-29.142857 39.428571 0 60.571429 29.142857 16 21.142857 16 66.857143zm191.428571-92.571429l0 285.142857-52 0 0-31.428571q-30.285714 35.428571-58.857143 35.428571-26.285714 0-33.714286-21.142857-4.571429-13.714286-4.571429-42.857143l0-225.142857 52 0 0 209.714286q0 18.857143 0.571429 20 1.714286 12.571429 12 12.571429 15.428571 0 32.571429-24.571429l0-217.714286 52 0z" p-id="1506" fill="#2c2c2c"></path></svg>